# xmcd
#
# Track frame offsets: 
#        150
#        23020
#        42885
#        65765
#        83482
#        104445
#        125315
#        145032
#        163612
#        184840
#
# Disc length: 2721 seconds
#
# Revision: 2
# Processed by: cddbd v1.5.2PL0 Copyright (c) Steve Scherf et al.
# Submitted via: ExactAudioCopy v1.0b3
#
DISCID=7c0a9f0a
DTITLE=The Temptations - To Be Continued...
DYEAR=1986
DGENRE=Pop
TTITLE0=Lady Soul
TTITLE1=Message To The World
TTITLE2=To Be Continued
TTITLE3=Put Us Together Again
TTITLE4=Someone
TTITLE5=Girls (They Like It)
TTITLE6=More Love, Your Love
TTITLE7=A Fine Mess
TTITLE8=You're The One
TTITLE9=Love Me Right
EXTD=
EXTT0=
EXTT1=
EXTT2=
EXTT3=
EXTT4=
EXTT5=
EXTT6=
EXTT7=
EXTT8=
EXTT9=
PLAYORDER=
